<svg width="20" height="20" viewBox="0 0 20 20" fill="none" xmlns="http://www.w3.org/2000/svg">
<path d="M2 12.3668C2 12.5326 2.06585 12.6915 2.18306 12.8088C2.30027 12.926 2.45924 12.9918 2.625 12.9918H14.8663L12.1838 15.6743C12.0699 15.7922 12.0069 15.9501 12.0083 16.1139C12.0098 16.2778 12.0755 16.4346 12.1914 16.5505C12.3072 16.6663 12.464 16.7321 12.6279 16.7335C12.7917 16.7349 12.9496 16.6719 13.0675 16.5581L16.8175 12.8081C16.8753 12.7506 16.9212 12.6822 16.9525 12.6069C16.9839 12.5316 17 12.4509 17 12.3693V12.3668C17 12.2856 16.9838 12.2043 16.9513 12.1281C16.9201 12.0523 16.8742 11.9835 16.8162 11.9256L13.0663 8.17557C12.9484 8.06172 12.7905 7.99872 12.6266 8.00015C12.4628 8.00157 12.306 8.0673 12.1901 8.18318C12.0742 8.29906 12.0085 8.45582 12.0071 8.61969C12.0057 8.78356 12.0687 8.94144 12.1825 9.05932L14.8663 11.7418H2.625C2.45924 11.7418 2.30027 11.8077 2.18306 11.9249C2.06585 12.0421 2 12.2011 2 12.3668Z" fill="white"/>
</svg>
