<svg width="28" height="24" viewBox="0 0 28 24" fill="none" xmlns="http://www.w3.org/2000/svg">
<g clip-path="url(#clip0_401_75)">
<path d="M16.2726 12.3301L15.2372 11.3888C15.3501 11.1775 15.4491 10.9604 15.5336 10.7383H16.9979C17.479 10.7383 17.8692 10.3836 17.8692 9.94615V7.62396C17.8692 7.18655 17.4791 6.8318 16.9979 6.8318H15.5335C15.449 6.60974 15.35 6.39269 15.2372 6.18138L16.2726 5.24004C16.6129 4.93071 16.6129 4.42913 16.2726 4.1198L14.4664 2.47778C14.126 2.16853 13.5745 2.16853 13.2341 2.47778L12.1987 3.41911C11.9662 3.31649 11.7276 3.22647 11.4832 3.1497V1.81847C11.4832 1.38105 11.0931 1.02631 10.6118 1.02631H8.05742C7.57627 1.02631 7.18604 1.38097 7.18604 1.81847V3.1497C6.94178 3.22655 6.70302 3.31641 6.47058 3.41911L5.4352 2.47778C5.27182 2.32926 5.05013 2.24578 4.81902 2.24578C4.58791 2.24578 4.36631 2.32926 4.20284 2.47778L2.39653 4.1198C2.23316 4.26833 2.14133 4.46986 2.14133 4.67996C2.14133 4.89006 2.23316 5.09152 2.39653 5.24012L3.432 6.18146C3.31911 6.39269 3.22009 6.60974 3.13564 6.83188H1.67138C1.19013 6.83188 0.799999 7.18655 0.799999 7.62396V9.94623C0.799999 10.3836 1.19013 10.7384 1.67138 10.7384H3.13564C3.22027 10.9604 3.31911 11.1775 3.43209 11.3889L2.39662 12.3301C2.05635 12.6395 2.05635 13.1411 2.39662 13.4504L4.20284 15.0924C4.5432 15.4016 5.09476 15.4017 5.43511 15.0924L6.47058 14.1511C6.70293 14.2538 6.94178 14.3438 7.18604 14.4206V15.7518C7.18604 16.1892 7.57618 16.544 8.05742 16.544H10.6119C11.0931 16.544 11.4833 16.1893 11.4833 15.7518V14.4206C11.7275 14.3437 11.9663 14.2538 12.1988 14.1511L13.2342 15.0924C13.5746 15.4017 14.1261 15.4017 14.4665 15.0924L16.2727 13.4504C16.613 13.141 16.613 12.6394 16.2726 12.3301ZM14.0292 9.76901C13.9092 10.2441 13.704 10.6943 13.4194 11.107C13.2036 11.4198 13.2544 11.8268 13.5416 12.0878L14.4243 12.8902L13.8503 13.4121L12.9676 12.6096C12.6803 12.3485 12.2328 12.3026 11.8887 12.4985C11.4345 12.7573 10.9394 12.9438 10.4171 13.0527C10.0212 13.1353 9.74062 13.4556 9.74062 13.8249V14.9596H8.92889V13.8249C8.92889 13.4556 8.64836 13.1354 8.25244 13.0527C7.73013 12.9438 7.23502 12.7573 6.7808 12.4985C6.43698 12.3027 5.98924 12.3484 5.70196 12.6096L4.8192 13.4121L4.24524 12.8902L5.12791 12.0878C5.41511 11.8267 5.46578 11.4198 5.25013 11.107C4.96551 10.6943 4.76035 10.2441 4.64036 9.76901C4.54951 9.40917 4.19724 9.15414 3.79111 9.15414H2.54267V8.41621H3.79084C4.19689 8.41621 4.54916 8.16118 4.64009 7.80142C4.76018 7.32627 4.96524 6.87616 5.24987 6.46348C5.46569 6.15067 5.41493 5.74372 5.12773 5.48263L4.24498 4.68012L4.81902 4.15835L5.70169 4.96085C5.98889 5.22202 6.43662 5.26784 6.78062 5.07188C7.23467 4.81313 7.72978 4.62671 8.25218 4.5177C8.64809 4.43511 8.92862 4.11479 8.92862 3.74558V2.61063H9.74036V3.74542C9.74036 4.11463 10.0209 4.43487 10.4168 4.51754C10.9393 4.62655 11.4343 4.81297 11.8884 5.07172C12.2324 5.26784 12.6802 5.22194 12.9673 4.96069L13.85 4.15819L14.424 4.67996L13.5412 5.48247C13.254 5.74364 13.2034 6.15051 13.4191 6.46332C13.7037 6.876 13.9088 7.32619 14.0289 7.80126C14.1197 8.16101 14.4721 8.41604 14.8781 8.41604H16.1263V9.15398H14.8781C14.4722 9.15406 14.12 9.40909 14.0292 9.76901Z" fill="white" fill-opacity="0.87"/>
<path d="M9.33458 5.74115C7.48827 5.74115 5.98622 7.10664 5.98622 8.78511C5.98622 10.4636 7.48827 11.8291 9.33458 11.8291C11.1809 11.8291 12.6829 10.4636 12.6829 8.78511C12.6829 7.10664 11.181 5.74115 9.33458 5.74115ZM9.33458 10.2448C8.44915 10.2448 7.72889 9.59004 7.72889 8.78511C7.72889 7.98018 8.44924 7.32539 9.33458 7.32539C10.2199 7.32539 10.9403 7.98018 10.9403 8.78511C10.9403 9.59004 10.22 10.2448 9.33458 10.2448Z" fill="white" fill-opacity="0.87"/>
<path d="M26.6292 17.8657C27.0078 17.8022 27.2581 17.4718 27.1883 17.1276L26.8595 15.5072C26.826 15.3419 26.7215 15.1955 26.5693 15.1002C26.4171 15.005 26.2292 14.9685 26.0476 14.999L25.0804 15.1611C25.0055 15.0441 24.9244 14.9304 24.8375 14.8203L25.3951 14.0841C25.4999 13.9456 25.54 13.775 25.5065 13.6097C25.473 13.4444 25.3685 13.2981 25.2163 13.2028L23.7233 12.2683C23.4065 12.0699 22.9723 12.1425 22.754 12.4308L22.1963 13.1671C22.0522 13.1326 21.9065 13.1044 21.7595 13.0825L21.5811 12.2033C21.5112 11.8592 21.1473 11.6314 20.7692 11.6951L18.9867 11.9941C18.8048 12.0245 18.6438 12.1195 18.539 12.2578C18.4342 12.3963 18.3941 12.5669 18.4276 12.7322L18.606 13.6113C18.4772 13.6796 18.3522 13.7532 18.2311 13.8322L17.4212 13.3253C17.2689 13.23 17.0812 13.1937 16.8995 13.224C16.7176 13.2545 16.5566 13.3494 16.4518 13.4879L15.4239 14.8451C15.319 14.9836 15.279 15.1541 15.3125 15.3194C15.346 15.4847 15.4505 15.6311 15.6028 15.7264L16.4126 16.2332C16.3746 16.3643 16.3436 16.4967 16.3195 16.6304L15.3524 16.7926C15.1705 16.8231 15.0095 16.918 14.9047 17.0564C14.7998 17.1949 14.7598 17.3654 14.7933 17.5307L15.1222 19.1511C15.1921 19.4953 15.5555 19.7232 15.9341 19.6593L16.9012 19.4972C16.9762 19.6142 17.0573 19.728 17.1442 19.838L16.5866 20.5742C16.4818 20.7127 16.4417 20.8832 16.4752 21.0485C16.5087 21.2139 16.6132 21.3602 16.7654 21.4555L18.2584 22.3899C18.5752 22.5883 19.0095 22.5157 19.2277 22.2274L19.7853 21.4912C19.9294 21.5257 20.0751 21.5539 20.2222 21.5759L20.4006 22.455C20.4626 22.7603 20.7556 22.9739 21.0853 22.9739C21.1273 22.9739 21.1699 22.9705 21.2125 22.9633L22.995 22.6644C23.1769 22.6339 23.3379 22.5389 23.4427 22.4006C23.5475 22.2621 23.5876 22.0915 23.554 21.9263L23.3756 21.0471C23.5044 20.9789 23.6295 20.9052 23.7506 20.8262L24.5604 21.3331C24.7127 21.4285 24.9002 21.4649 25.0821 21.4344C25.264 21.4039 25.425 21.309 25.5298 21.1705L26.5577 19.8133C26.776 19.525 26.696 19.1305 26.3789 18.9321L25.5691 18.4251C25.6071 18.2941 25.6381 18.1617 25.6622 18.028L26.6292 17.8657ZM24.8972 16.8675C24.5776 16.9211 24.3412 17.1684 24.3273 17.4635C24.3113 17.8008 24.2338 18.131 24.0969 18.445C23.9772 18.7196 24.082 19.033 24.3496 19.2005L25.0142 19.6166L24.7769 19.93L24.1124 19.514C23.8445 19.3464 23.4852 19.3692 23.2459 19.5689C22.972 19.7972 22.6603 19.9809 22.3193 20.1149C22.021 20.232 21.8513 20.5211 21.9102 20.8115L22.0566 21.5331L21.6452 21.6021L21.4988 20.8806C21.4398 20.5901 21.1679 20.3751 20.8433 20.3625C20.4719 20.3478 20.1086 20.2774 19.7633 20.153C19.6796 20.1229 19.5927 20.1084 19.5068 20.1084C19.2827 20.1084 19.0655 20.207 18.9324 20.3827L18.4748 20.9869L18.13 20.7712L18.5876 20.1671C18.7719 19.9238 18.7468 19.597 18.5272 19.3793C18.2761 19.1304 18.074 18.847 17.9266 18.5368C17.7976 18.2657 17.4789 18.1114 17.1603 18.1651L16.3666 18.2982L16.2906 17.9242L17.0844 17.7911C17.404 17.7375 17.6404 17.4902 17.6543 17.1951C17.6703 16.8577 17.7478 16.5276 17.8847 16.2134C18.0044 15.9388 17.8996 15.6255 17.6319 15.4579L16.9673 15.042L17.2046 14.7286L17.8692 15.1446C18.1371 15.3123 18.4963 15.2893 18.7357 15.0897C19.0096 14.8614 19.3213 14.6777 19.6625 14.5436C19.9606 14.4264 20.1303 14.1374 20.0714 13.847L19.925 13.1254L20.3364 13.0564L20.4828 13.778C20.5418 14.0686 20.8138 14.2835 21.1384 14.2961C21.5095 14.3107 21.8727 14.3811 22.2181 14.5056C22.5204 14.6145 22.865 14.5191 23.0492 14.2758L23.5068 13.6716L23.8516 13.8873L23.394 14.4915C23.2097 14.7349 23.2348 15.0616 23.4544 15.2793C23.7055 15.5282 23.9076 15.8115 24.0549 16.1216C24.1837 16.3927 24.502 16.5471 24.8212 16.4934L25.615 16.3604L25.6909 16.7344L24.8972 16.8675Z" fill="white" fill-opacity="0.87"/>
<path d="M22.3828 15.4911C21.8428 15.1532 21.1901 15.0266 20.5454 15.1347C19.9006 15.2428 19.3407 15.5728 18.9689 16.0637C18.2012 17.0772 18.4838 18.4695 19.5987 19.1673C20.0228 19.4328 20.5074 19.5601 20.9871 19.5601C21.7683 19.5601 22.5371 19.2226 23.0127 18.5947C23.7803 17.5812 23.4977 16.1889 22.3828 15.4911ZM21.8644 17.876C21.5328 18.3138 20.871 18.4248 20.3894 18.1234C19.9077 17.8219 19.7856 17.2203 20.1172 16.7825C20.1173 16.7824 20.1173 16.7824 20.1173 16.7824C20.2779 16.5703 20.5198 16.4277 20.7984 16.381C20.8633 16.3702 20.9284 16.3648 20.9931 16.3648C21.2058 16.3648 21.4133 16.4231 21.5923 16.5351C22.0739 16.8366 22.1961 17.4381 21.8644 17.876Z" fill="white" fill-opacity="0.87"/>
</g>
<defs>
<clipPath id="clip0_401_75">
<rect width="26.4" height="24" fill="white" transform="translate(0.799999 0.00012207)"/>
</clipPath>
</defs>
</svg>
