<svg width="75" height="76" viewBox="0 0 75 76" fill="none" xmlns="http://www.w3.org/2000/svg">
<path d="M50.3687 54.9574L37.1737 58.5103L23.9785 54.9574L20.9336 21.9699H53.414L50.3687 54.9574Z" fill="#2062AF"/>
<path d="M37.1736 24.6418V55.6766L37.2034 55.6847L47.8816 52.8093L50.3463 24.6418H37.1736Z" fill="#3C9CD7"/>
<path d="M29.685 17.1234V15.16H32.5496V13.0115H27.5366V19.0839H32.5496V17.1234H29.685ZM37.7027 15.16H39.7055V13.0115H34.6919V15.16C35.3627 15.8307 35.7125 16.1518 36.6826 17.1218C36.1155 17.1218 34.6919 17.1239 34.6919 17.1238V19.0839H39.7055V17.1234L37.7027 15.16ZM44.8085 15.16H46.8112V13.0115H41.7974V15.16C42.4682 15.8307 42.8182 16.1518 43.7883 17.1218C43.2214 17.1218 41.7974 17.1239 41.7974 17.1238V19.0839H46.8113V17.1234L44.8085 15.16Z" fill="black"/>
<path d="M37.1619 32.89L27.7178 36.8232L28.031 40.7174L37.1619 36.8134L46.8748 32.6606L47.2775 28.6771L37.1619 32.89Z" fill="white"/>
<path d="M27.7177 36.8233L28.0309 40.7175L37.1618 36.8134V32.8901L27.7177 36.8233Z" fill="url(#paint0_linear_405_7)"/>
<path d="M47.2775 28.6772L37.1619 32.8901V36.8134L46.8748 32.6607L47.2775 28.6772Z" fill="url(#paint1_linear_405_7)"/>
<path d="M27.7322 36.8233L28.0455 40.7175L42.0557 40.7621L41.7423 45.9543L37.1321 47.2522L32.7004 46.1332L32.4319 42.9105H28.314L28.8512 49.1321L37.1769 51.5938L45.4574 49.1768L46.5317 36.8233H27.7322Z" fill="url(#paint2_linear_405_7)"/>
<path opacity="0.05" d="M37.1619 36.8233H27.7178L28.031 40.7175L37.1619 40.7466V36.8233ZM37.1619 47.2398L37.1171 47.2523L32.686 46.1333L32.4175 42.9106H28.2997L28.8368 49.1322L37.1619 51.5939V47.2398Z" fill="black"/>
<path d="M26.8673 28.6772H47.2775L46.8748 32.6608H27.3596L26.8673 28.6772Z" fill="url(#paint3_linear_405_7)"/>
<path opacity="0.05" d="M37.1619 28.6772H26.8673L27.3596 32.6608H37.1619V28.6772Z" fill="black"/>
<path d="M37.25 2.2982C37.4047 2.20889 37.5953 2.20889 37.75 2.2982L68.226 19.8935C68.3807 19.9828 68.476 20.1479 68.476 20.3265V55.5171C68.476 55.6958 68.3807 55.8608 68.226 55.9501L37.75 73.5454L38.5 74.8445L37.75 73.5454C37.5953 73.6347 37.4047 73.6347 37.25 73.5454L6.77405 55.9501C6.61935 55.8608 6.52405 55.6957 6.52405 55.5171V20.3265C6.52405 20.1479 6.61935 19.9828 6.77405 19.8935L37.25 2.2982Z" stroke="url(#paint4_linear_405_7)" stroke-width="3"/>
<defs>
<linearGradient id="paint0_linear_405_7" x1="32.4398" y1="40.7176" x2="32.4398" y2="32.8902" gradientUnits="userSpaceOnUse">
<stop offset="0.387" stop-color="#D1D3D4" stop-opacity="0"/>
<stop offset="1" stop-color="#D1D3D4"/>
</linearGradient>
<linearGradient id="paint1_linear_405_7" x1="42.2196" y1="36.8135" x2="42.2196" y2="28.6773" gradientUnits="userSpaceOnUse">
<stop offset="0.387" stop-color="#D1D3D4" stop-opacity="0"/>
<stop offset="1" stop-color="#D1D3D4"/>
</linearGradient>
<linearGradient id="paint2_linear_405_7" x1="27.7322" y1="44.2087" x2="46.5316" y2="44.2087" gradientUnits="userSpaceOnUse">
<stop stop-color="#E8E7E5"/>
<stop offset="1" stop-color="white"/>
</linearGradient>
<linearGradient id="paint3_linear_405_7" x1="26.8673" y1="30.669" x2="47.2774" y2="30.669" gradientUnits="userSpaceOnUse">
<stop stop-color="#E8E7E5"/>
<stop offset="1" stop-color="white"/>
</linearGradient>
<linearGradient id="paint4_linear_405_7" x1="69.6429" y1="75.4218" x2="-9.86444" y2="25.0533" gradientUnits="userSpaceOnUse">
<stop stop-color="#0D54BE"/>
<stop offset="1" stop-color="#20ECD3"/>
</linearGradient>
</defs>
</svg>
