<svg width="75" height="76" viewBox="0 0 75 76" fill="none" xmlns="http://www.w3.org/2000/svg">
<path d="M37.25 2.2982C37.4047 2.20889 37.5953 2.20889 37.75 2.2982L68.226 19.8935C68.3807 19.9828 68.476 20.1479 68.476 20.3265V55.5171C68.476 55.6958 68.3807 55.8608 68.226 55.9501L37.75 73.5454L38.5 74.8445L37.75 73.5454C37.5953 73.6347 37.4047 73.6347 37.25 73.5454L6.77405 55.9501C6.61935 55.8608 6.52405 55.6957 6.52405 55.5171V20.3265C6.52405 20.1479 6.61935 19.9828 6.77405 19.8935L37.25 2.2982Z" stroke="url(#paint0_linear_405_9)" stroke-width="3"/>
<g clip-path="url(#clip0_405_9)">
<path d="M18.261 49.9272C18.261 52.714 20.52 54.9727 23.3065 54.9727H52.3457C55.1327 54.9727 57.3914 52.7137 57.3914 49.9272V20.888C57.3914 18.101 55.1324 15.8423 52.3459 15.8423H23.3067C20.5197 15.8423 18.261 18.1013 18.261 20.8878V49.927V49.9272Z" fill="#563D7C"/>
<path d="M34.4876 33.1511V27.6097H39.3653C39.8299 27.6097 40.2778 27.6484 40.7091 27.7259C41.1405 27.8032 41.5222 27.9414 41.854 28.1406C42.1857 28.3397 42.4512 28.6163 42.6504 28.9701C42.8494 29.3241 42.9491 29.7776 42.9491 30.3305C42.9491 31.326 42.6504 32.0451 42.053 32.4874C41.4558 32.9299 40.6926 33.1511 39.7634 33.1511H34.4876ZM29.2779 23.5614V47.2537H40.759C41.8209 47.2537 42.8551 47.121 43.8616 46.8555C44.8681 46.59 45.764 46.1808 46.5494 45.6278C47.3346 45.0747 47.9596 44.3612 48.4241 43.4875C48.8888 42.6136 49.121 41.5794 49.121 40.3849C49.121 38.9027 48.7615 37.6363 48.0426 36.5856C47.3236 35.5347 46.234 34.7992 44.774 34.3788C45.8358 33.8701 46.6379 33.2174 47.1799 32.4211C47.7218 31.6247 47.9928 30.6293 47.9928 29.4346C47.9928 28.3286 47.8103 27.3995 47.4452 26.6474C47.0802 25.8953 46.5659 25.2925 45.9022 24.8389C45.2387 24.3854 44.4423 24.0591 43.5131 23.8601C42.584 23.6609 41.5553 23.5614 40.4271 23.5614H29.2779ZM34.4876 43.2053V36.7016H40.1616C41.2898 36.7016 42.1969 36.9614 42.8827 37.4814C43.5684 38.0013 43.9114 38.8695 43.9114 40.0862C43.9114 40.7057 43.8063 41.2144 43.5961 41.6126C43.3859 42.0108 43.1039 42.3261 42.7499 42.5583C42.396 42.7906 41.9867 42.9565 41.5222 43.0562C41.0575 43.1555 40.571 43.2053 40.0621 43.2053H34.4876Z" fill="white"/>
</g>
<defs>
<linearGradient id="paint0_linear_405_9" x1="69.6429" y1="75.4218" x2="-9.86444" y2="25.0533" gradientUnits="userSpaceOnUse">
<stop stop-color="#0D54BE"/>
<stop offset="1" stop-color="#20ECD3"/>
</linearGradient>
<clipPath id="clip0_405_9">
<rect width="39.1304" height="39.1304" fill="white" transform="translate(18.261 15.8423)"/>
</clipPath>
</defs>
</svg>
