<svg width="75" height="76" viewBox="0 0 75 76" fill="none" xmlns="http://www.w3.org/2000/svg">
<path d="M36 2.44254C36.9282 1.90664 38.0718 1.90664 39 2.44254L67.476 18.8831C68.4042 19.419 68.976 20.4094 68.976 21.4812V54.3624C68.976 55.4342 68.4042 56.4246 67.476 56.9605L39 73.4011C38.0718 73.937 36.9282 73.937 36 73.4011L7.52405 56.9605C6.59585 56.4246 6.02405 55.4342 6.02405 54.3624V21.4812C6.02405 20.4094 6.59584 19.419 7.52405 18.8831L36 2.44254Z" stroke="url(#paint0_linear_405_5)" stroke-width="2"/>
<g clip-path="url(#clip0_405_5)">
<path d="M53.2872 24.9874L50.4741 56.5015L37.829 60.0071L25.2187 56.5063L22.4085 24.9874H53.2872Z" fill="#E44D26"/>
<path d="M37.8478 57.3275L48.0657 54.4948L50.4696 27.5645H37.8478V57.3275Z" fill="#F16529"/>
<path d="M32.3792 35.2959H37.8478V31.4302H28.1545L28.247 32.4673L29.1972 43.1201H37.8478V39.2544H32.7325L32.3792 35.2959ZM33.2505 45.053H29.3699L29.9114 51.1227L37.83 53.3208L37.8478 53.316V49.294L37.8309 49.2985L33.5257 48.136L33.2505 45.053Z" fill="#EBEBEB"/>
<path d="M25.2814 16.4218H27.2459V18.3627H29.043V16.4218H31.0076V22.2993H29.0431V20.3312H27.246V22.2993H25.2815V16.4218H25.2814ZM33.5908 18.3709H31.8616V16.4218H37.2859V18.3709H35.5557V22.2993H33.5912V18.3709H33.5911H33.5908ZM38.1468 16.4218H40.1951L41.4552 18.487L42.714 16.4218H44.7632V22.2993H42.8067V19.3861L41.4552 21.4759H41.4213L40.0689 19.3861V22.2993H38.1468V16.4218ZM45.7409 16.4218H47.706V20.3566H50.4686V22.2993H45.7407V16.4218H45.7409Z" fill="black"/>
<path d="M37.8345 43.1201H42.5946L42.1458 48.1336L37.8344 49.2973V53.319L45.7592 51.1227L45.8173 50.4696L46.7259 40.2925L46.8202 39.2544H37.8345V43.1201ZM37.8345 35.2865V35.2959H47.1719L47.2494 34.4271L47.4256 32.4673L47.518 31.4302H37.8345V35.2866V35.2865Z" fill="white"/>
</g>
<defs>
<linearGradient id="paint0_linear_405_5" x1="69.6429" y1="75.4218" x2="-9.86444" y2="25.0533" gradientUnits="userSpaceOnUse">
<stop stop-color="#0D54BE"/>
<stop offset="1" stop-color="#20ECD3"/>
</linearGradient>
<clipPath id="clip0_405_5">
<rect width="43.6957" height="43.6957" fill="white" transform="translate(16 16.4218)"/>
</clipPath>
</defs>
</svg>
