<svg width="73" height="76" viewBox="0 0 73 76" fill="none" xmlns="http://www.w3.org/2000/svg">
<path d="M36.2699 2.23055C36.4142 2.15578 36.5858 2.15578 36.7301 2.23055L37.4178 0.903689L36.7301 2.23055L70.9072 19.944C71.0731 20.0299 71.1771 20.2011 71.1771 20.3879V55.4557C71.1771 55.6425 71.0731 55.8137 70.9072 55.8996L36.7301 73.6131C36.5858 73.6878 36.4142 73.6879 36.2699 73.6131L2.09278 55.8996C1.92695 55.8137 1.82285 55.6425 1.82285 55.4557V20.3879C1.82285 20.2011 1.92695 20.0299 2.09278 19.944L36.2699 2.23055L35.5822 0.90369L36.2699 2.23055Z" stroke="url(#paint0_linear_401_191)" stroke-width="3"/>
<defs>
<linearGradient id="paint0_linear_401_191" x1="72.3061" y1="75.4218" x2="-10.5458" y2="16.9526" gradientUnits="userSpaceOnUse">
<stop stop-color="#0D54BE"/>
<stop offset="1" stop-color="#20ECD3"/>
</linearGradient>
</defs>
</svg>
